:FULLY-SPECIFIED
:FORCE-ALL-JOINTS-BE-3DOF
:DEGREES
645
root 5.59131 16.4718 -2.87177 15.7738 13.3923 -0.916734
lfemur -15.8234 20.8976 -26.8062
ltibia 33.7935 -0 0
lfoot -36.3942 12.039 -0.0304324
ltoes 23.6526 -0 0
rfemur -54.3699 -26.4893 27.1142
rtibia 63.5273 -0 0
rfoot -4.62813 -6.9723 0.0514191
rtoes 7.97852 -0 0
lowerback -0.705802 -3.72174 -5.16927
upperback -2.37864 -4.98244 0.721878
thorax -1.5537 -2.40205 3.63752
lowerneck -9.94943 -7.59785 -0.0732382
upperneck 5.46308 -10.7399 6.90922
head 3.68966 -4.99166 1.46376
lclavicle 7.36497e-14 7.95139e-15 0
lhumerus -40.263 -67.9347 120.61
lradius 74.8077 -0 0
lwrist 24.2263 0 0
lhand -4.43485 1.61605 0.00382048
lfingers 7.12502 -0 0
lthumb 21.3363 30.4611 0.0035587
rclavicle 7.36497e-14 7.95139e-15 0
rhumerus -32.3375 3.64172 -72.4148
rradius 76.0813 -0 0
rwrist -23.3716 0 0
rhand -27.2622 -38.7537 0.0776528
rfingers 7.12502 -0 0
rthumb -0.673293 -68.7289 0.0749208
646
root 5.58496 16.4407 -2.79193 15.9457 12.3399 -0.630458
lfemur -15.6502 21.1683 -27.1735
ltibia 33.9395 -0 0
lfoot -36.5947 12.4013 -0.0348715
ltoes 23.1071 -0 0
rfemur -55.0915 -26.9711 28.0831
rtibia 64.072 -0 0
rfoot -5.12604 -7.21885 0.058921
rtoes 7.93723 -0 0
lowerback -0.661218 -3.80894 -5.28466
upperback -2.31371 -5.10178 0.596054
thorax -1.5015 -2.46361 3.57054
lowerneck -9.94845 -7.50789 -0.125754
upperneck 5.18115 -10.5903 6.86685
head 3.61229 -4.93056 1.48227
lclavicle 7.36497e-14 7.95139e-15 0
lhumerus -40.3625 -68.3175 121.022
lradius 74.7964 -0 0
lwrist 24.335 0 0
lhand -4.38493 1.79876 0.00437767
lfingers 7.12502 -0 0
lthumb 21.3843 30.6383 0.0040777
rclavicle 7.36497e-14 7.95139e-15 0
rhumerus -33.5777 2.48 -72.5448
rradius 74.49 -0 0
rwrist -22.8482 0 0
rhand -27.4391 -39.8013 0.088995
rfingers 7.12502 -0 0
rthumb -0.844218 -69.7756 0.0858639
647
root 5.57862 16.4096 -2.71209 16.1117 11.2867 -0.348502
lfemur -15.4786 21.44 -27.5406
ltibia 34.0854 -0 0
lfoot -36.7952 12.7637 -0.0380425
ltoes 22.5616 -0 0
rfemur -55.8252 -27.4419 29.063
rtibia 64.6167 -0 0
rfoot -5.62397 -7.46546 0.06428
rtoes 7.89593 -0 0
lowerback -0.616454 -3.89605 -5.40014
upperback -2.24852 -5.22097 0.470071
thorax -1.44922 -2.52512 3.50351
lowerneck -9.94754 -7.41794 -0.178257
upperneck 4.89925 -10.441 6.82376
head 3.53496 -4.86944 1.5007
lclavicle 7.36497e-14 7.95139e-15 0
lhumerus -40.4713 -68.7 121.443
lradius 74.785 -0 0
lwrist 24.4436 0 0
lhand -4.33501 1.98147 0.00477566
lfingers 7.12502 -0 0
lthumb 21.4322 30.8155 0.00444842
rclavicle 7.36497e-14 7.95139e-15 0
rhumerus -34.8144 1.31575 -72.6497
rradius 72.8986 -0 0
rwrist -22.3248 0 0
rhand -27.6163 -40.849 0.0970994
rfingers 7.12502 -0 0
rthumb -1.01531 -70.8222 0.0936831
648
root 5.57228 16.3785 -2.63225 16.2717 10.2327 -0.0706303
lfemur -15.3085 21.7128 -27.9076
ltibia 34.2313 -0 0
lfoot -36.9958 13.126 -0.0399452
ltoes 22.0161 -0 0
rfemur -56.5711 -27.9015 30.0537
rtibia 65.1614 -0 0
rfoot -6.12192 -7.71211 0.0674956
rtoes 7.85463 -0 0
lowerback -0.571509 -3.98307 -5.51569
upperback -2.18304 -5.34002 0.343927
thorax -1.39687 -2.58656 3.43641
lowerneck -9.94673 -7.32799 -0.230748
upperneck 4.61737 -10.2919 6.77994
head 3.45765 -4.80829 1.51904
lclavicle 7.36497e-14 7.95139e-15 0
lhumerus -40.5899 -69.0822 121.874
lradius 74.7736 -0 0
lwrist 24.5522 0 0
lhand -4.28508 2.16417 0.00501445
lfingers 7.12502 -0 0
lthumb 21.4802 30.9927 0.00467085
rclavicle 7.36497e-14 7.95139e-15 0
rhumerus -36.0486 0.14951 -72.7293
rradius 71.3073 -0 0
rwrist -21.8014 0 0
rhand -27.7936 -41.8967 0.101963
rfingers 7.12502 -0 0
rthumb -1.18653 -71.8688 0.0983757
649
root 5.56594 16.3474 -2.55242 16.4261 9.17793 0.203384
lfemur -15.14 21.9866 -28.2743
ltibia 34.3773 -0 0
lfoot -37.1964 13.4884 -0.0405794
ltoes 21.4706 -0 0
rfemur -57.329 -28.3494 31.0554
rtibia 65.7061 -0 0
rfoot -6.61989 -7.95877 0.0685675
rtoes 7.81333 -0 0
lowerback -0.526384 -4.06999 -5.63133
upperback -2.11729 -5.45893 0.217622
thorax -1.34444 -2.64795 3.36925
lowerneck -9.94599 -7.23803 -0.283227
upperneck 4.33551 -10.1429 6.7354
head 3.38036 -4.74712 1.5373
lclavicle 7.36497e-14 7.95139e-15 0
lhumerus -40.7188 -69.4641 122.315
lradius 74.7622 -0 0
lwrist 24.6608 0 0
lhand -4.23516 2.34688 0.00509405
lfingers 7.12502 -0 0
lthumb 21.5281 31.17 0.004745
rclavicle 7.36497e-14 7.95139e-15 0
rhumerus -37.2814 -1.01817 -72.7838
rradius 69.7159 -0 0
rwrist -21.2781 0 0
rhand -27.9709 -42.9444 0.103585
rfingers 7.12502 -0 0
rthumb -1.35779 -72.9155 0.0999401
650
root 5.5596 16.3162 -2.47258 16.575 8.12247 0.473761
lfemur -14.9731 22.2614 -28.6409
ltibia 34.5232 -0 0
lfoot -37.3969 13.8508 -0.0399452
ltoes 20.9251 -0 0
rfemur -58.099 -28.7856 32.0679
rtibia 66.2507 -0 0
rfoot -7.11785 -8.20543 0.0674956
rtoes 7.77203 -0 0
lowerback -0.481078 -4.15683 -5.74705
upperback -2.05127 -5.57769 0.0911544
thorax -1.29194 -2.70927 3.30203
lowerneck -9.94534 -7.14807 -0.335695
upperneck 4.05365 -9.99422 6.69014
head 3.3031 -4.68593 1.55547
lclavicle 7.36497e-14 7.95139e-15 0
lhumerus -40.8586 -69.8456 122.766
lradius 74.7508 -0 0
lwrist 24.7695 0 0
lhand -4.18524 2.52959 0.00501445
lfingers 7.12502 -0 0
lthumb 21.576 31.3472 0.00467085
rclavicle 7.36497e-14 7.95139e-15 0
rhumerus -38.5138 -2.18676 -72.8131
rradius 68.1246 -0 0
rwrist -20.7547 0 0
rhand -28.1482 -43.9922 0.101963
rfingers 7.12502 -0 0
rthumb -1.52906 -73.9622 0.0983757
651
root 5.55326 16.2851 -2.39274 16.7185 7.06632 0.740709
lfemur -14.8077 22.5371 -29.0074
ltibia 34.6692 -0 0
lfoot -37.5975 14.2131 -0.0380425
ltoes 20.3796 -0 0
rfemur -58.8809 -29.2097 33.0913
rtibia 66.7954 -0 0
rfoot -7.6158 -8.45208 0.06428
rtoes 7.73073 -0 0
lowerback -0.435591 -4.24358 -5.86285
upperback -1.98497 -5.69631 -0.0354763
thorax -1.23937 -2.77053 3.23476
lowerneck -9.94477 -7.05812 -0.388152
upperneck 3.77181 -9.84574 6.64415
head 3.22587 -4.62471 1.57356
lclavicle 7.36497e-14 7.95139e-15 0
lhumerus -41.0098 -70.2267 123.228
lradius 74.7394 -0 0
lwrist 24.8781 0 0
lhand -4.13531 2.7123 0.00477566
lfingers 7.12502 -0 0
lthumb 21.624 31.5244 0.00444842
rclavicle 7.36497e-14 7.95139e-15 0
rhumerus -39.7468 -3.3557 -72.8174
rradius 66.5333 -0 0
rwrist -20.2313 0 0
rhand -28.3255 -45.0399 0.0970994
rfingers 7.12502 -0 0
rthumb -1.70027 -75.0088 0.0936831
